<svg width="120" height="40" viewBox="0 0 120 40" fill="none" xmlns="http://www.w3.org/2000/svg">
  <!-- Professional NoSpyLinks Logo -->
  <defs>
    <linearGradient id="logoGradient" x1="0%" y1="0%" x2="100%" y2="100%">
      <stop offset="0%" style="stop-color:#67e8f9"/>
      <stop offset="100%" style="stop-color:#06b6d4"/>
    </linearGradient>
  </defs>
  
  <!-- Shield Background -->
  <path d="M8 12c0-2.5 2-4.5 4.5-4.5h15c2.5 0 4.5 2 4.5 4.5v8c0 6-8 12-12 12s-12-6-12-8v-12z" fill="url(#logoGradient)" opacity="0.9"/>
  
  <!-- Shield Border -->
  <path d="M8 12c0-2.5 2-4.5 4.5-4.5h15c2.5 0 4.5 2 4.5 4.5v8c0 6-8 12-12 12s-12-6-12-8v-12z" stroke="#0891b2" stroke-width="1.5" fill="none"/>
  
  <!-- Stop Symbol -->
  <circle cx="20" cy="16" r="6" fill="#dc2626"/>
  <rect x="16" y="14" width="8" height="4" rx="1" fill="white"/>
  
  <!-- Text -->
  <text x="36" y="16" font-family="Inter, sans-serif" font-size="12" font-weight="700" fill="currentColor">NoSpy</text>
  <text x="36" y="28" font-family="Inter, sans-serif" font-size="12" font-weight="700" fill="currentColor">Links</text>
</svg>
